<?xml version="1.0" encoding="utf-8"?>
<!-- Generator: Adobe Illustrator 22.0.0, SVG Export Plug-In . SVG Version: 6.00 Build 0)  -->
<svg version="1.1" id="Layer_1" xmlns="http://www.w3.org/2000/svg" xmlns:xlink="http://www.w3.org/1999/xlink" x="0px" y="0px"
	 viewBox="0 0 208.8 208.8" style="enable-background:new 0 0 208.8 208.8;" xml:space="preserve">
<style type="text/css">
	.st0{fill:#FFFFFF;}
	.st1{fill:#231F20;}
</style>
<circle class="st0" cx="104.4" cy="104.4" r="104.4"/>
<title>favicon</title>
<path class="st1" d="M53.6,114.7v19.5c-0.1,2.4,0.2,4.8,1,7c0.7,1.5,2,2.6,3.6,2.9c2.7,0.6,5.5,0.8,8.2,0.7v2.6
	c-10.3-0.2-18.2-0.3-23.7-0.4c-3.6,0-8.6,0.1-15.1,0.2l-5.5,0.1v-2.3c1.8,0,3.6-0.3,5.4-0.9c1.1-0.5,2-1.5,2.2-2.6
	c0.5-2.1,0.7-4.2,0.6-6.3v-57c0.1-2.1-0.1-4.3-0.7-6.3c-0.3-1.2-1.1-2.1-2.2-2.6c-1.7-0.6-3.5-0.9-5.3-0.9v-2.3
	c4.4,0.2,11,0.3,19.8,0.3l13.2-0.1c1.5-0.1,3.3-0.1,5.3-0.1c11.3,0,19.9,2.1,25.8,6.2S95,82,95,88.9c0,4.3-1.2,8.5-3.5,12.1
	c-2.3,3.9-6.2,7.1-11.7,9.7s-12.9,3.9-22,3.9L53.6,114.7z M55.8,69.2c-1,0.7-1.6,1.7-1.8,2.9c-0.4,2-0.5,4.1-0.5,6.2v34h3.1
	c5.3,0,9-2,11.1-6s3.1-9.4,3-16.2c0-7.4-0.8-12.9-2.5-16.4c-1.4-3.4-4.8-5.5-8.5-5.3C58.4,68.3,57,68.6,55.8,69.2z"/>
<path class="st1" d="M173.1,76.3c7.9,6.8,11.8,16.7,11.8,29.6c0.2,7.7-1.8,15.3-5.8,21.9c-4,6.4-9.8,11.4-16.7,14.5
	c-7.3,3.4-15.9,5.2-26,5.2l-7.1-0.1c-4.6-0.1-8-0.2-10.1-0.2c-9,0-15.6,0.1-20,0.4v-2.3c1.8,0,3.6-0.3,5.3-0.9
	c1.1-0.5,2-1.5,2.2-2.6c0.5-2.1,0.7-4.2,0.6-6.3v-57c0.1-2.1-0.1-4.3-0.6-6.3c-0.3-1.2-1.1-2.1-2.2-2.6c-1.7-0.6-3.5-0.9-5.3-0.9
	v-2.3c3.5,0.2,8.7,0.3,15.6,0.3h4.1l5.1-0.1c6.4-0.1,10.9-0.2,13.5-0.2C153.3,66.1,165.2,69.5,173.1,76.3z M133.8,69
	c-1.2,0.6-2.1,1.6-2.5,2.9c-0.5,2-0.8,4.1-0.7,6.2v57.5c-0.1,2.1,0.2,4.2,0.7,6.2c0.4,1.3,1.3,2.3,2.5,2.9c1.8,0.6,3.6,0.9,5.5,0.8
	c7.6,0,13.1-3.3,16.4-9.8c3.4-6.6,5.1-16.3,5.1-29.3s-1.7-22.6-5.2-28.8s-8.9-9.4-16.4-9.4C137.3,68.1,135.5,68.4,133.8,69z"/>
</svg>
