<svg id="Layer_1" data-name="Layer 1" xmlns="http://www.w3.org/2000/svg" viewBox="0 0 208.82 208.84"><defs><style>.cls-1{fill:#231f20;}</style></defs><title>favicon</title><path class="cls-1" d="M53.58,114.65V134.2a18.38,18.38,0,0,0,1,7,5.26,5.26,0,0,0,3.56,2.94,32.54,32.54,0,0,0,8.23.74v2.65q-15.52-.34-23.69-.35-5.41,0-15.07.23l-5.52.12v-2.3a18,18,0,0,0,5.35-.92,3.83,3.83,0,0,0,2.24-2.65,24.78,24.78,0,0,0,.58-6.32v-57A22.65,22.65,0,0,0,29.6,72a4,4,0,0,0-2.24-2.64,17.25,17.25,0,0,0-5.29-.92v-2.3q6.56.34,19.78.34l13.23-.11c1.53-.08,3.29-.12,5.29-.12q17,0,25.81,6.16T95,88.89A23.4,23.4,0,0,1,91.53,101q-3.45,5.81-11.73,9.72t-22,3.91Zm2.24-45.43A4.27,4.27,0,0,0,54,72.1a30.69,30.69,0,0,0-.46,6.21v34h3.11q8,0,11.09-6t3-16.22q0-11.15-2.53-16.44a8.73,8.73,0,0,0-8.51-5.29A7.86,7.86,0,0,0,55.82,69.22Z"/><path class="cls-1" d="M173.07,76.3q11.84,10.17,11.84,29.61a40.76,40.76,0,0,1-5.81,21.91,38.5,38.5,0,0,1-16.73,14.54q-10.92,5.17-26,5.18l-7.13-.12q-6.9-.22-10.12-.23-13.45,0-20,.35v-2.3a18,18,0,0,0,5.35-.92,3.83,3.83,0,0,0,2.24-2.65,24.78,24.78,0,0,0,.58-6.32v-57a22.65,22.65,0,0,0-.64-6.33,4,4,0,0,0-2.24-2.64,17.25,17.25,0,0,0-5.29-.92v-2.3q5.3.34,15.64.34h4.14l5.06-.11q9.66-.22,13.46-.23Q161.23,66.12,173.07,76.3ZM133.79,69a4.56,4.56,0,0,0-2.47,2.88,20.93,20.93,0,0,0-.69,6.21v57.5a20.93,20.93,0,0,0,.69,6.21,4.52,4.52,0,0,0,2.47,2.87,13.93,13.93,0,0,0,5.47.81q11.38,0,16.44-9.83t5.06-29.27q0-19.44-5.23-28.81t-16.39-9.37A13.75,13.75,0,0,0,133.79,69Z"/></svg>